<svg width="30" height="30" viewBox="0 0 30 30" fill="none" xmlns="http://www.w3.org/2000/svg">
<path d="M8.43761 16.875C11.0265 16.875 13.1251 18.9736 13.1251 21.5625C13.1251 25.1869 10.187 28.125 6.56261 28.125C4.1294 28.125 2.00637 26.8 0.874133 24.8369C0.701502 24.5373 0.707979 24.1666 0.890735 23.873C1.07353 23.5796 1.40314 23.4109 1.74816 23.4336C1.79012 23.4364 1.83268 23.4375 1.87511 23.4375C2.91065 23.4375 3.75011 22.598 3.75011 21.5625C3.75011 18.9737 5.84878 16.875 8.43761 16.875ZM12.2569 12.0508C14.8451 13.091 16.9091 15.1551 17.9493 17.7432C17.1301 18.3505 16.2716 18.9082 15.3751 19.4062L14.7462 19.7549C14.1254 17.5845 12.4165 15.8749 10.2462 15.2539L10.5948 14.626C11.0929 13.7294 11.6496 12.8701 12.2569 12.0508ZM25.7491 1.875C27.0615 1.87537 28.1251 2.93955 28.1251 4.25195C28.1251 4.72104 27.9868 5.17999 27.7267 5.57031L23.4943 11.9189C22.3787 13.5922 21.0543 15.1069 19.5616 16.4336C18.3412 13.791 16.2091 11.6578 13.5665 10.4375C14.8929 8.94517 16.4083 7.62216 18.0812 6.50684L24.4308 2.27441C24.8211 2.0143 25.2801 1.875 25.7491 1.875Z" fill="#9EFF00"/>
</svg>
